<?xml version="1.0" encoding="utf-8" standalone="no"?>
<!DOCTYPE svg PUBLIC "-//W3C//DTD SVG 1.1//EN"
  "http://www.w3.org/Graphics/SVG/1.1/DTD/svg11.dtd">
<svg xmlns:xlink="http://www.w3.org/1999/xlink" width="460.8pt" height="345.6pt" viewBox="0 0 460.8 345.6" xmlns="http://www.w3.org/2000/svg" version="1.1">
 <metadata>
  <rdf:RDF xmlns:dc="http://purl.org/dc/elements/1.1/" xmlns:cc="http://creativecommons.org/ns#" xmlns:rdf="http://www.w3.org/1999/02/22-rdf-syntax-ns#">
   <cc:Work>
    <dc:type rdf:resource="http://purl.org/dc/dcmitype/StillImage"/>
    <dc:date>2026-01-20T19:02:30.187200</dc:date>
    <dc:format>image/svg+xml</dc:format>
    <dc:creator>
     <cc:Agent>
      <dc:title>Matplotlib v3.10.8, https://matplotlib.org/</dc:title>
     </cc:Agent>
    </dc:creator>
   </cc:Work>
  </rdf:RDF>
 </metadata>
 <defs>
  <style type="text/css">*{stroke-linejoin: round; stroke-linecap: butt}</style>
 </defs>
 <g id="figure_1">
  <g id="patch_1">
   <path d="M 0 345.6 
L 460.8 345.6 
L 460.8 0 
L 0 0 
z
" style="fill: #ffffff"/>
  </g>
  <g id="axes_1">
   <g id="patch_2">
    <path d="M 57.6 307.584 
L 414.72 307.584 
L 414.72 41.472 
L 57.6 41.472 
z
" style="fill: #ffffff"/>
   </g>
   <g id="matplotlib.axis_1">
    <g id="xtick_1">
     <g id="line2d_1">
      <defs>
       <path id="m6a65a9e3eb" d="M 0 0 
L 0 3.5 
" style="stroke: #000000; stroke-width: 0.8"/>
      </defs>
      <g>
       <use xlink:href="#m6a65a9e3eb" x="57.6" y="307.584" style="stroke: #000000; stroke-width: 0.8"/>
      </g>
     </g>
     <g id="text_1">
      <!-- -1.00 -->
      <g transform="translate(47.045312 321.524625) scale(0.1 -0.1)">
       <defs>
        <path id="LMSans10-Regular-2d" d="M 70 1235 
L 1766 1235 
L 1766 1606 
L 70 1606 
L 70 1235 
z
" transform="scale(0.015625)"/>
        <path id="LMSans10-Regular-31" d="M 570 3546 
C 781 3552 1088 3565 1408 3699 
L 1408 371 
L 608 371 
L 608 0 
L 2714 0 
L 2714 371 
L 1914 371 
L 1914 4339 
L 1786 4339 
C 1408 3949 877 3930 570 3917 
L 570 3546 
z
" transform="scale(0.015625)"/>
        <path id="LMSans10-Regular-2e" d="M 621 0 
L 1152 0 
L 1152 531 
L 621 531 
L 621 0 
z
" transform="scale(0.015625)"/>
        <path id="LMSans10-Regular-30" d="M 269 2086 
C 269 1581 294 1114 486 646 
C 742 32 1229 -141 1594 -141 
C 2061 -141 2464 122 2669 563 
C 2861 979 2925 1402 2925 2086 
C 2925 2592 2899 3187 2630 3706 
C 2368 4186 1926 4339 1600 4339 
C 1222 4339 774 4166 512 3597 
C 301 3130 269 2598 269 2086 
z
M 768 2163 
C 768 2566 768 2950 877 3302 
C 915 3424 1075 3949 1594 3949 
C 2093 3949 2259 3462 2304 3347 
C 2426 2989 2426 2560 2426 2163 
C 2426 1741 2426 1338 2310 934 
C 2144 352 1805 250 1600 250 
C 1267 250 1005 493 877 954 
C 774 1318 768 1664 768 2163 
z
" transform="scale(0.015625)"/>
       </defs>
       <use xlink:href="#LMSans10-Regular-2d"/>
       <use xlink:href="#LMSans10-Regular-31" transform="translate(33.299988 0)"/>
       <use xlink:href="#LMSans10-Regular-2e" transform="translate(83.299973 0)"/>
       <use xlink:href="#LMSans10-Regular-30" transform="translate(111.09996 0)"/>
       <use xlink:href="#LMSans10-Regular-30" transform="translate(161.099945 0)"/>
      </g>
     </g>
    </g>
    <g id="xtick_2">
     <g id="line2d_2">
      <g>
       <use xlink:href="#m6a65a9e3eb" x="102.24" y="307.584" style="stroke: #000000; stroke-width: 0.8"/>
      </g>
     </g>
     <g id="text_2">
      <!-- -0.75 -->
      <g transform="translate(91.685312 321.524625) scale(0.1 -0.1)">
       <defs>
        <path id="LMSans10-Regular-37" d="M 269 3744 
L 1485 3744 
C 1562 3744 1638 3750 1715 3750 
L 2490 3750 
C 1542 2707 973 1427 973 -70 
L 1510 -70 
C 1510 1850 2426 3219 2925 3782 
L 2925 4198 
L 269 4198 
L 269 3744 
z
" transform="scale(0.015625)"/>
        <path id="LMSans10-Regular-35" d="M 250 486 
C 512 122 954 -141 1472 -141 
C 2234 -141 2874 493 2874 1299 
C 2874 2099 2323 2733 1664 2733 
C 1408 2733 1165 2637 979 2470 
L 979 3789 
L 2662 3789 
L 2662 4198 
L 518 4198 
L 518 1837 
L 941 1837 
C 1050 2093 1286 2342 1658 2342 
C 1958 2342 2304 2080 2304 1312 
C 2304 250 1523 250 1466 250 
C 1037 250 646 499 461 845 
L 250 486 
z
" transform="scale(0.015625)"/>
       </defs>
       <use xlink:href="#LMSans10-Regular-2d"/>
       <use xlink:href="#LMSans10-Regular-30" transform="translate(33.299988 0)"/>
       <use xlink:href="#LMSans10-Regular-2e" transform="translate(83.299973 0)"/>
       <use xlink:href="#LMSans10-Regular-37" transform="translate(111.09996 0)"/>
       <use xlink:href="#LMSans10-Regular-35" transform="translate(161.099945 0)"/>
      </g>
     </g>
    </g>
    <g id="xtick_3">
     <g id="line2d_3">
      <g>
       <use xlink:href="#m6a65a9e3eb" x="146.88" y="307.584" style="stroke: #000000; stroke-width: 0.8"/>
      </g>
     </g>
     <g id="text_3">
      <!-- -0.50 -->
      <g transform="translate(136.325312 321.524625) scale(0.1 -0.1)">
       <use xlink:href="#LMSans10-Regular-2d"/>
       <use xlink:href="#LMSans10-Regular-30" transform="translate(33.299988 0)"/>
       <use xlink:href="#LMSans10-Regular-2e" transform="translate(83.299973 0)"/>
       <use xlink:href="#LMSans10-Regular-35" transform="translate(111.09996 0)"/>
       <use xlink:href="#LMSans10-Regular-30" transform="translate(161.099945 0)"/>
      </g>
     </g>
    </g>
    <g id="xtick_4">
     <g id="line2d_4">
      <g>
       <use xlink:href="#m6a65a9e3eb" x="191.52" y="307.584" style="stroke: #000000; stroke-width: 0.8"/>
      </g>
     </g>
     <g id="text_4">
      <!-- -0.25 -->
      <g transform="translate(180.965312 321.524625) scale(0.1 -0.1)">
       <defs>
        <path id="LMSans10-Regular-32" d="M 269 3290 
C 346 3181 378 3142 390 3123 
C 403 3110 467 3027 531 2938 
C 659 3430 838 3930 1421 3930 
C 2022 3930 2349 3450 2349 2950 
C 2349 2406 1984 2042 1606 1658 
L 1114 1203 
L 320 410 
L 320 0 
L 2874 0 
L 2874 454 
L 1709 454 
C 1632 454 1555 448 1478 448 
L 781 448 
C 986 627 1472 1107 1670 1293 
C 1792 1408 2118 1677 2240 1792 
C 2528 2080 2874 2419 2874 2963 
C 2874 3699 2355 4339 1510 4339 
C 781 4339 422 3840 269 3290 
z
" transform="scale(0.015625)"/>
       </defs>
       <use xlink:href="#LMSans10-Regular-2d"/>
       <use xlink:href="#LMSans10-Regular-30" transform="translate(33.299988 0)"/>
       <use xlink:href="#LMSans10-Regular-2e" transform="translate(83.299973 0)"/>
       <use xlink:href="#LMSans10-Regular-32" transform="translate(111.09996 0)"/>
       <use xlink:href="#LMSans10-Regular-35" transform="translate(161.099945 0)"/>
      </g>
     </g>
    </g>
    <g id="xtick_5">
     <g id="line2d_5">
      <g>
       <use xlink:href="#m6a65a9e3eb" x="236.16" y="307.584" style="stroke: #000000; stroke-width: 0.8"/>
      </g>
     </g>
     <g id="text_5">
      <!-- 0.00 -->
      <g transform="translate(227.270156 321.524625) scale(0.1 -0.1)">
       <use xlink:href="#LMSans10-Regular-30"/>
       <use xlink:href="#LMSans10-Regular-2e" transform="translate(49.999985 0)"/>
       <use xlink:href="#LMSans10-Regular-30" transform="translate(77.799973 0)"/>
       <use xlink:href="#LMSans10-Regular-30" transform="translate(127.799957 0)"/>
      </g>
     </g>
    </g>
    <g id="xtick_6">
     <g id="line2d_6">
      <g>
       <use xlink:href="#m6a65a9e3eb" x="280.8" y="307.584" style="stroke: #000000; stroke-width: 0.8"/>
      </g>
     </g>
     <g id="text_6">
      <!-- 0.25 -->
      <g transform="translate(271.910156 321.524625) scale(0.1 -0.1)">
       <use xlink:href="#LMSans10-Regular-30"/>
       <use xlink:href="#LMSans10-Regular-2e" transform="translate(49.999985 0)"/>
       <use xlink:href="#LMSans10-Regular-32" transform="translate(77.799973 0)"/>
       <use xlink:href="#LMSans10-Regular-35" transform="translate(127.799957 0)"/>
      </g>
     </g>
    </g>
    <g id="xtick_7">
     <g id="line2d_7">
      <g>
       <use xlink:href="#m6a65a9e3eb" x="325.44" y="307.584" style="stroke: #000000; stroke-width: 0.8"/>
      </g>
     </g>
     <g id="text_7">
      <!-- 0.50 -->
      <g transform="translate(316.550156 321.524625) scale(0.1 -0.1)">
       <use xlink:href="#LMSans10-Regular-30"/>
       <use xlink:href="#LMSans10-Regular-2e" transform="translate(49.999985 0)"/>
       <use xlink:href="#LMSans10-Regular-35" transform="translate(77.799973 0)"/>
       <use xlink:href="#LMSans10-Regular-30" transform="translate(127.799957 0)"/>
      </g>
     </g>
    </g>
    <g id="xtick_8">
     <g id="line2d_8">
      <g>
       <use xlink:href="#m6a65a9e3eb" x="370.08" y="307.584" style="stroke: #000000; stroke-width: 0.8"/>
      </g>
     </g>
     <g id="text_8">
      <!-- 0.75 -->
      <g transform="translate(361.190156 321.524625) scale(0.1 -0.1)">
       <use xlink:href="#LMSans10-Regular-30"/>
       <use xlink:href="#LMSans10-Regular-2e" transform="translate(49.999985 0)"/>
       <use xlink:href="#LMSans10-Regular-37" transform="translate(77.799973 0)"/>
       <use xlink:href="#LMSans10-Regular-35" transform="translate(127.799957 0)"/>
      </g>
     </g>
    </g>
    <g id="xtick_9">
     <g id="line2d_9">
      <g>
       <use xlink:href="#m6a65a9e3eb" x="414.72" y="307.584" style="stroke: #000000; stroke-width: 0.8"/>
      </g>
     </g>
     <g id="text_9">
      <!-- 1.00 -->
      <g transform="translate(405.830156 321.524625) scale(0.1 -0.1)">
       <use xlink:href="#LMSans10-Regular-31"/>
       <use xlink:href="#LMSans10-Regular-2e" transform="translate(49.999985 0)"/>
       <use xlink:href="#LMSans10-Regular-30" transform="translate(77.799973 0)"/>
       <use xlink:href="#LMSans10-Regular-30" transform="translate(127.799957 0)"/>
      </g>
     </g>
    </g>
    <g id="text_10">
     <!-- $x$ -->
     <g transform="translate(233.26 334.405875) scale(0.1 -0.1)">
      <defs>
       <path id="Cmmi10-78" d="M 500 184 
Q 613 97 819 97 
Q 1019 97 1172 289 
Q 1325 481 1381 709 
L 1672 1844 
Q 1741 2153 1741 2266 
Q 1741 2425 1652 2544 
Q 1563 2663 1403 2663 
Q 1200 2663 1022 2536 
Q 844 2409 722 2214 
Q 600 2019 550 1819 
Q 538 1778 500 1778 
L 422 1778 
Q 372 1778 372 1838 
L 372 1856 
Q 434 2094 584 2320 
Q 734 2547 951 2687 
Q 1169 2828 1416 2828 
Q 1650 2828 1839 2703 
Q 2028 2578 2106 2363 
Q 2216 2559 2386 2693 
Q 2556 2828 2759 2828 
Q 2897 2828 3040 2779 
Q 3184 2731 3275 2631 
Q 3366 2531 3366 2381 
Q 3366 2219 3261 2101 
Q 3156 1984 2994 1984 
Q 2891 1984 2822 2050 
Q 2753 2116 2753 2216 
Q 2753 2350 2845 2451 
Q 2938 2553 3066 2572 
Q 2950 2663 2747 2663 
Q 2541 2663 2389 2472 
Q 2238 2281 2175 2047 
L 1894 916 
Q 1825 659 1825 494 
Q 1825 331 1917 214 
Q 2009 97 2163 97 
Q 2463 97 2698 361 
Q 2934 625 3009 941 
Q 3022 978 3059 978 
L 3138 978 
Q 3163 978 3178 961 
Q 3194 944 3194 922 
Q 3194 916 3188 903 
Q 3097 522 2806 225 
Q 2516 -72 2150 -72 
Q 1916 -72 1727 54 
Q 1538 181 1459 397 
Q 1359 209 1182 68 
Q 1006 -72 806 -72 
Q 669 -72 523 -23 
Q 378 25 287 125 
Q 197 225 197 378 
Q 197 528 301 651 
Q 406 775 563 775 
Q 669 775 741 711 
Q 813 647 813 544 
Q 813 409 723 309 
Q 634 209 500 184 
z
" transform="scale(0.015625)"/>
      </defs>
      <use xlink:href="#Cmmi10-78" transform="translate(0 0.8125)"/>
     </g>
    </g>
   </g>
   <g id="matplotlib.axis_2">
    <g id="ytick_1">
     <g id="line2d_10">
      <defs>
       <path id="m67a82fb0d9" d="M 0 0 
L -3.5 0 
" style="stroke: #000000; stroke-width: 0.8"/>
      </defs>
      <g>
       <use xlink:href="#m67a82fb0d9" x="57.6" y="307.584" style="stroke: #000000; stroke-width: 0.8"/>
      </g>
     </g>
     <g id="text_11">
      <!-- 0.00 -->
      <g transform="translate(32.820312 311.054312) scale(0.1 -0.1)">
       <use xlink:href="#LMSans10-Regular-30"/>
       <use xlink:href="#LMSans10-Regular-2e" transform="translate(49.999985 0)"/>
       <use xlink:href="#LMSans10-Regular-30" transform="translate(77.799973 0)"/>
       <use xlink:href="#LMSans10-Regular-30" transform="translate(127.799957 0)"/>
      </g>
     </g>
    </g>
    <g id="ytick_2">
     <g id="line2d_11">
      <g>
       <use xlink:href="#m67a82fb0d9" x="57.6" y="274.32" style="stroke: #000000; stroke-width: 0.8"/>
      </g>
     </g>
     <g id="text_12">
      <!-- 0.25 -->
      <g transform="translate(32.820312 277.790312) scale(0.1 -0.1)">
       <use xlink:href="#LMSans10-Regular-30"/>
       <use xlink:href="#LMSans10-Regular-2e" transform="translate(49.999985 0)"/>
       <use xlink:href="#LMSans10-Regular-32" transform="translate(77.799973 0)"/>
       <use xlink:href="#LMSans10-Regular-35" transform="translate(127.799957 0)"/>
      </g>
     </g>
    </g>
    <g id="ytick_3">
     <g id="line2d_12">
      <g>
       <use xlink:href="#m67a82fb0d9" x="57.6" y="241.056" style="stroke: #000000; stroke-width: 0.8"/>
      </g>
     </g>
     <g id="text_13">
      <!-- 0.50 -->
      <g transform="translate(32.820312 244.526312) scale(0.1 -0.1)">
       <use xlink:href="#LMSans10-Regular-30"/>
       <use xlink:href="#LMSans10-Regular-2e" transform="translate(49.999985 0)"/>
       <use xlink:href="#LMSans10-Regular-35" transform="translate(77.799973 0)"/>
       <use xlink:href="#LMSans10-Regular-30" transform="translate(127.799957 0)"/>
      </g>
     </g>
    </g>
    <g id="ytick_4">
     <g id="line2d_13">
      <g>
       <use xlink:href="#m67a82fb0d9" x="57.6" y="207.792" style="stroke: #000000; stroke-width: 0.8"/>
      </g>
     </g>
     <g id="text_14">
      <!-- 0.75 -->
      <g transform="translate(32.820312 211.262312) scale(0.1 -0.1)">
       <use xlink:href="#LMSans10-Regular-30"/>
       <use xlink:href="#LMSans10-Regular-2e" transform="translate(49.999985 0)"/>
       <use xlink:href="#LMSans10-Regular-37" transform="translate(77.799973 0)"/>
       <use xlink:href="#LMSans10-Regular-35" transform="translate(127.799957 0)"/>
      </g>
     </g>
    </g>
    <g id="ytick_5">
     <g id="line2d_14">
      <g>
       <use xlink:href="#m67a82fb0d9" x="57.6" y="174.528" style="stroke: #000000; stroke-width: 0.8"/>
      </g>
     </g>
     <g id="text_15">
      <!-- 1.00 -->
      <g transform="translate(32.820312 177.998312) scale(0.1 -0.1)">
       <use xlink:href="#LMSans10-Regular-31"/>
       <use xlink:href="#LMSans10-Regular-2e" transform="translate(49.999985 0)"/>
       <use xlink:href="#LMSans10-Regular-30" transform="translate(77.799973 0)"/>
       <use xlink:href="#LMSans10-Regular-30" transform="translate(127.799957 0)"/>
      </g>
     </g>
    </g>
    <g id="ytick_6">
     <g id="line2d_15">
      <g>
       <use xlink:href="#m67a82fb0d9" x="57.6" y="141.264" style="stroke: #000000; stroke-width: 0.8"/>
      </g>
     </g>
     <g id="text_16">
      <!-- 1.25 -->
      <g transform="translate(32.820312 144.734312) scale(0.1 -0.1)">
       <use xlink:href="#LMSans10-Regular-31"/>
       <use xlink:href="#LMSans10-Regular-2e" transform="translate(49.999985 0)"/>
       <use xlink:href="#LMSans10-Regular-32" transform="translate(77.799973 0)"/>
       <use xlink:href="#LMSans10-Regular-35" transform="translate(127.799957 0)"/>
      </g>
     </g>
    </g>
    <g id="ytick_7">
     <g id="line2d_16">
      <g>
       <use xlink:href="#m67a82fb0d9" x="57.6" y="108" style="stroke: #000000; stroke-width: 0.8"/>
      </g>
     </g>
     <g id="text_17">
      <!-- 1.50 -->
      <g transform="translate(32.820312 111.470313) scale(0.1 -0.1)">
       <use xlink:href="#LMSans10-Regular-31"/>
       <use xlink:href="#LMSans10-Regular-2e" transform="translate(49.999985 0)"/>
       <use xlink:href="#LMSans10-Regular-35" transform="translate(77.799973 0)"/>
       <use xlink:href="#LMSans10-Regular-30" transform="translate(127.799957 0)"/>
      </g>
     </g>
    </g>
    <g id="ytick_8">
     <g id="line2d_17">
      <g>
       <use xlink:href="#m67a82fb0d9" x="57.6" y="74.736" style="stroke: #000000; stroke-width: 0.8"/>
      </g>
     </g>
     <g id="text_18">
      <!-- 1.75 -->
      <g transform="translate(32.820312 78.206313) scale(0.1 -0.1)">
       <use xlink:href="#LMSans10-Regular-31"/>
       <use xlink:href="#LMSans10-Regular-2e" transform="translate(49.999985 0)"/>
       <use xlink:href="#LMSans10-Regular-37" transform="translate(77.799973 0)"/>
       <use xlink:href="#LMSans10-Regular-35" transform="translate(127.799957 0)"/>
      </g>
     </g>
    </g>
    <g id="ytick_9">
     <g id="line2d_18">
      <g>
       <use xlink:href="#m67a82fb0d9" x="57.6" y="41.472" style="stroke: #000000; stroke-width: 0.8"/>
      </g>
     </g>
     <g id="text_19">
      <!-- 2.00 -->
      <g transform="translate(32.820312 44.942313) scale(0.1 -0.1)">
       <use xlink:href="#LMSans10-Regular-32"/>
       <use xlink:href="#LMSans10-Regular-2e" transform="translate(49.999985 0)"/>
       <use xlink:href="#LMSans10-Regular-30" transform="translate(77.799973 0)"/>
       <use xlink:href="#LMSans10-Regular-30" transform="translate(127.799957 0)"/>
      </g>
     </g>
    </g>
    <g id="text_20">
     <!-- $y$ -->
     <g transform="translate(26.720312 177.028) rotate(-90) scale(0.1 -0.1)">
      <defs>
       <path id="Cmmi10-79" d="M 538 -916 
Q 672 -1147 1006 -1147 
Q 1309 -1147 1531 -934 
Q 1753 -722 1889 -420 
Q 2025 -119 2100 197 
Q 1816 -72 1484 -72 
Q 1231 -72 1053 15 
Q 875 103 776 276 
Q 678 450 678 697 
Q 678 906 734 1126 
Q 791 1347 892 1617 
Q 994 1888 1069 2088 
Q 1153 2322 1153 2472 
Q 1153 2663 1013 2663 
Q 759 2663 595 2402 
Q 431 2141 353 1819 
Q 341 1778 300 1778 
L 225 1778 
Q 172 1778 172 1838 
L 172 1856 
Q 275 2238 487 2533 
Q 700 2828 1025 2828 
Q 1253 2828 1411 2678 
Q 1569 2528 1569 2297 
Q 1569 2178 1516 2047 
Q 1488 1969 1388 1706 
Q 1288 1444 1234 1272 
Q 1181 1100 1147 934 
Q 1113 769 1113 603 
Q 1113 391 1203 244 
Q 1294 97 1491 97 
Q 1888 97 2203 581 
L 2688 2553 
Q 2709 2638 2787 2698 
Q 2866 2759 2956 2759 
Q 3034 2759 3092 2709 
Q 3150 2659 3150 2578 
Q 3150 2541 3144 2528 
L 2509 -19 
Q 2425 -347 2200 -647 
Q 1975 -947 1658 -1130 
Q 1341 -1313 997 -1313 
Q 831 -1313 668 -1248 
Q 506 -1184 406 -1056 
Q 306 -928 306 -756 
Q 306 -581 409 -453 
Q 513 -325 684 -325 
Q 788 -325 858 -389 
Q 928 -453 928 -556 
Q 928 -703 818 -812 
Q 709 -922 563 -922 
Q 556 -919 550 -917 
Q 544 -916 538 -916 
z
" transform="scale(0.015625)"/>
      </defs>
      <use xlink:href="#Cmmi10-79" transform="translate(0 0.8125)"/>
     </g>
    </g>
   </g>
   <g id="line2d_19">
    <path d="M 57.6 302.466462 
L 72.671971 301.524348 
L 85.529577 300.503112 
L 96.63712 299.402884 
L 106.351755 298.221924 
L 114.923492 296.960711 
L 122.566625 295.615953 
L 129.45973 294.180476 
L 135.674239 292.663001 
L 141.353015 291.050744 
L 146.567489 289.341735 
L 151.389091 287.529224 
L 155.853537 285.615832 
L 160.032259 283.58487 
L 163.960972 281.429354 
L 167.675392 279.138289 
L 171.211233 276.695365 
L 174.568497 274.10654 
L 177.818614 271.317654 
L 180.925869 268.359211 
L 183.961692 265.160968 
L 186.926085 261.712781 
L 189.819046 258.00733 
L 192.712007 253.936027 
L 195.569253 249.528873 
L 198.462214 244.652626 
L 201.390891 239.276305 
L 204.426715 233.234016 
L 207.676832 226.260561 
L 211.391251 217.744334 
L 217.498614 203.067394 
L 221.64162 193.399824 
L 224.284572 187.776156 
L 226.391791 183.789927 
L 228.17757 180.859443 
L 229.749055 178.682083 
L 231.177678 177.068375 
L 232.463438 175.938502 
L 233.642052 175.186182 
L 234.749235 174.735319 
L 235.820702 174.54001 
L 236.856454 174.578585 
L 237.892205 174.840309 
L 238.963672 175.343065 
L 240.106571 176.133366 
L 241.3209 177.249952 
L 242.642376 178.772199 
L 244.106715 180.80558 
L 245.749631 183.476946 
L 247.642556 186.994858 
L 249.892637 191.668417 
L 252.785599 198.22892 
L 257.821494 210.314857 
L 263.17883 222.964672 
L 266.786103 230.914696 
L 270.03622 237.548341 
L 273.107759 243.318292 
L 276.072151 248.42318 
L 279.000828 253.032464 
L 281.929505 257.23303 
L 284.893897 261.097213 
L 287.894005 264.642928 
L 290.929829 267.890586 
L 294.072799 270.927316 
L 297.287201 273.725945 
L 300.644464 276.353733 
L 304.14459 278.809144 
L 307.787579 281.09378 
L 311.64486 283.249425 
L 315.716436 285.269459 
L 320.073735 287.180564 
L 324.71676 288.972557 
L 329.71694 290.662543 
L 335.145707 292.25982 
L 341.038776 293.759651 
L 347.503294 295.172928 
L 354.646409 296.503394 
L 362.575266 297.750265 
L 371.468443 298.91902 
L 381.504518 300.008566 
L 392.933501 301.020323 
L 406.076832 301.955177 
L 414.72 302.466462 
L 414.72 302.466462 
" clip-path="url(#p708ad2b833)" style="fill: none; stroke: #1f77b4; stroke-width: 1.5; stroke-linecap: square"/>
   </g>
   <g id="line2d_20">
    <path d="M 57.6 302.466462 
L 58.992907 311.893384 
L 60.314383 319.366852 
L 61.600144 325.389038 
L 62.814473 330.046653 
L 63.957372 333.597127 
L 65.064554 336.33333 
L 66.100306 338.320042 
L 67.064626 339.71364 
L 67.993231 340.674028 
L 68.850405 341.254761 
L 69.671863 341.557441 
L 70.493321 341.631021 
L 71.350495 341.483246 
L 72.2791 341.086933 
L 73.279136 340.412034 
L 74.422034 339.360904 
L 75.74351 337.822963 
L 77.27928 335.672312 
L 79.100774 332.721268 
L 81.422286 328.51095 
L 84.958128 321.578348 
L 90.815482 310.11499 
L 93.744158 304.893234 
L 96.279964 300.812663 
L 98.565761 297.541099 
L 100.708695 294.851398 
L 102.744482 292.646313 
L 104.673123 290.874573 
L 106.566049 289.432537 
L 108.423258 288.296046 
L 110.244752 287.438577 
L 112.066247 286.822475 
L 113.923456 286.426571 
L 115.852097 286.243668 
L 117.887885 286.277693 
L 120.066535 286.540078 
L 122.495194 287.063125 
L 125.316724 287.907522 
L 129.031143 289.270189 
L 138.174329 292.720328 
L 141.210153 293.568939 
L 143.853105 294.079521 
L 146.246049 294.319518 
L 148.49613 294.326118 
L 150.674779 294.110865 
L 152.781998 293.680893 
L 154.889217 293.0219 
L 156.996436 292.12583 
L 159.103654 290.987336 
L 161.282304 289.552546 
L 163.49667 287.825777 
L 165.818182 285.728214 
L 168.246841 283.226731 
L 170.818362 280.249077 
L 173.532745 276.759513 
L 176.461422 272.626782 
L 179.711539 267.642786 
L 183.390243 261.576309 
L 187.818974 253.818861 
L 194.569217 241.479412 
L 202.319496 227.427939 
L 206.64108 220.057462 
L 210.212637 214.394091 
L 213.355608 209.817192 
L 216.177138 206.087609 
L 218.784374 202.997823 
L 221.213033 200.454433 
L 223.49883 198.374982 
L 225.641764 196.716199 
L 227.713267 195.390417 
L 229.677624 194.39274 
L 231.570549 193.67553 
L 233.427759 193.208311 
L 235.249253 192.979772 
L 237.035032 192.977574 
L 238.82081 193.195053 
L 240.642304 193.642181 
L 242.499514 194.330196 
L 244.392439 195.269188 
L 246.356796 196.492353 
L 248.428299 198.049452 
L 250.606949 199.972915 
L 252.892745 202.292183 
L 255.35712 205.118888 
L 258.000072 208.499797 
L 260.857318 212.52409 
L 264.036004 217.397004 
L 267.643276 223.347328 
L 272.036292 231.045781 
L 278.82225 243.454389 
L 286.465383 257.30968 
L 290.822682 264.748505 
L 294.465671 270.538664 
L 297.680072 275.240027 
L 300.608749 279.139273 
L 303.323132 282.392484 
L 305.894653 285.131895 
L 308.323312 287.398658 
L 310.644824 289.265885 
L 312.894905 290.792154 
L 315.073555 292.003505 
L 317.21649 292.941714 
L 319.323708 293.624494 
L 321.430927 294.07731 
L 323.573861 294.312813 
L 325.788227 294.332602 
L 328.109739 294.12956 
L 330.609829 293.683439 
L 333.395644 292.952343 
L 336.681476 291.849452 
L 341.753087 289.876436 
L 346.967561 287.919502 
L 350.003384 287.017487 
L 352.503474 286.49924 
L 354.71784 286.259886 
L 356.753627 286.256952 
L 358.682268 286.472936 
L 360.539478 286.903767 
L 362.360972 287.556753 
L 364.146751 288.433344 
L 365.932529 289.556195 
L 367.754023 290.96494 
L 369.646949 292.717857 
L 371.611305 294.851398 
L 373.647093 297.397784 
L 375.825743 300.488951 
L 378.18297 304.232087 
L 380.825923 308.862736 
L 384.040324 314.971614 
L 393.18351 332.659835 
L 395.183582 335.886783 
L 396.826499 338.137981 
L 398.219406 339.68454 
L 399.39802 340.680878 
L 400.433771 341.283103 
L 401.362376 341.578196 
L 402.21955 341.623241 
L 403.041008 341.442416 
L 403.862466 341.023479 
L 404.683924 340.346949 
L 405.541098 339.344338 
L 406.433987 337.952037 
L 407.398308 336.016998 
L 408.398344 333.49768 
L 409.469811 330.16944 
L 410.576994 325.987076 
L 411.755608 320.630683 
L 412.969937 314.048644 
L 414.255698 305.794846 
L 414.72 302.466462 
L 414.72 302.466462 
" clip-path="url(#p708ad2b833)" style="fill: none; stroke: #ff7f0e; stroke-width: 0.5; stroke-linecap: square"/>
   </g>
   <g id="line2d_21">
    <path d="M 57.6 302.466499 
L 58.166473 -1 
M 71.612247 -1 
L 72.957696 108.877123 
L 74.172025 191.084918 
L 75.314923 253.97741 
L 76.350675 299.504124 
L 77.314995 332.846058 
L 77.801012 346.6 
M 89.371235 346.6 
L 91.601224 325.523179 
L 93.172709 312.719368 
L 94.494185 303.662969 
L 95.708515 296.824019 
L 96.779982 291.974793 
L 97.780018 288.418856 
L 98.708623 285.909412 
L 99.530081 284.281342 
L 100.280108 283.241777 
L 100.994419 282.614502 
L 101.6373 282.325257 
L 102.28018 282.271632 
L 102.958776 282.443557 
L 103.708803 282.872651 
L 104.601692 283.659577 
L 105.673159 284.917247 
L 107.101782 286.961566 
L 110.173321 291.878862 
L 112.28054 295.005859 
L 113.852025 296.960432 
L 115.244932 298.346503 
L 116.494977 299.287645 
L 117.673591 299.907271 
L 118.81649 300.265174 
L 119.959388 300.396252 
L 121.173717 300.307135 
L 122.459478 299.985581 
L 123.923816 299.380204 
L 125.673879 298.39962 
L 128.031107 296.800268 
L 134.317048 292.416823 
L 136.674275 291.114533 
L 138.888641 290.142399 
L 141.174437 289.383726 
L 143.745959 288.772443 
L 147.424662 288.155196 
L 152.246265 287.311396 
L 154.960648 286.599273 
L 157.425023 285.72139 
L 159.817966 284.63132 
L 162.28234 283.261239 
L 164.925293 281.53267 
L 167.925401 279.294981 
L 171.532673 276.313108 
L 176.211413 272.139531 
L 181.390171 267.228496 
L 185.390315 263.143007 
L 188.569001 259.584351 
L 191.354815 256.133017 
L 193.926337 252.593322 
L 196.426427 248.767453 
L 198.890801 244.584947 
L 201.426607 239.834319 
L 204.105275 234.330396 
L 207.069667 227.711636 
L 210.67694 219.08023 
L 220.570153 195.072414 
L 223.105959 189.693784 
L 225.213177 185.720517 
L 227.070387 182.671569 
L 228.749019 180.330609 
L 230.249073 178.602822 
L 231.64198 177.326032 
L 232.927741 176.439903 
L 234.14207 175.868548 
L 235.284968 175.570872 
L 236.392151 175.506667 
L 237.499334 175.663537 
L 238.642232 176.056181 
L 239.820846 176.703488 
L 241.070891 177.6533 
L 242.392367 178.942899 
L 243.82099 180.652727 
L 245.392475 182.889605 
L 247.142538 185.783529 
L 249.106895 189.479904 
L 251.392691 194.281253 
L 254.178506 200.683242 
L 258.285797 210.748919 
L 264.714599 226.464182 
L 267.964716 233.792461 
L 270.786247 239.623585 
L 273.429199 244.584947 
L 275.965005 248.882446 
L 278.50081 252.748453 
L 281.108047 256.319046 
L 283.893861 259.752113 
L 287.001116 263.219261 
L 290.715536 267.017639 
L 295.501422 271.579527 
L 300.68018 276.220813 
L 304.608893 279.463128 
L 307.751863 281.780683 
L 310.501962 283.538015 
L 313.037768 284.89617 
L 315.466427 285.946514 
L 317.930801 286.769672 
L 320.609469 287.425752 
L 324.109595 288.035508 
L 329.574077 288.984879 
L 332.109883 289.675599 
L 334.359964 290.520268 
L 336.538614 291.576108 
L 338.860126 292.95366 
L 341.717372 294.925903 
L 346.967561 298.596619 
L 348.789055 299.56464 
L 350.289109 300.116637 
L 351.610585 300.367444 
L 352.824914 300.369319 
L 353.967813 300.14797 
L 355.110711 299.694037 
L 356.253609 298.997902 
L 357.467939 297.990818 
L 358.789415 296.592516 
L 360.289469 294.661227 
L 362.146679 291.878861 
L 366.789703 284.733179 
L 367.968317 283.412286 
L 368.896922 282.681888 
L 369.682664 282.334626 
L 370.36126 282.270522 
L 371.00414 282.438897 
L 371.647021 282.855093 
L 372.289901 283.543187 
L 373.004212 284.655006 
L 373.754239 286.247942 
L 374.575698 288.530275 
L 375.468587 291.690273 
L 376.432907 295.939277 
L 377.504374 301.712903 
L 378.682988 309.349784 
L 380.004464 319.44828 
L 381.57595 333.302788 
L 382.948765 346.6 
M 394.518988 346.6 
L 395.36216 321.46329 
L 396.25505 287.987011 
L 397.21937 243.223511 
L 398.255122 184.477779 
L 399.39802 106.214597 
L 400.648065 4.286295 
L 400.707753 -1 
M 414.153527 -1 
L 414.72 302.466462 
L 414.72 302.466462 
" clip-path="url(#p708ad2b833)" style="fill: none; stroke: #2ca02c; stroke-width: 0.5; stroke-linecap: square"/>
   </g>
   <g id="patch_3">
    <path d="M 57.6 307.584 
L 57.6 41.472 
" style="fill: none; stroke: #000000; stroke-width: 0.8; stroke-linejoin: miter; stroke-linecap: square"/>
   </g>
   <g id="patch_4">
    <path d="M 414.72 307.584 
L 414.72 41.472 
" style="fill: none; stroke: #000000; stroke-width: 0.8; stroke-linejoin: miter; stroke-linecap: square"/>
   </g>
   <g id="patch_5">
    <path d="M 57.6 307.584 
L 414.72 307.584 
" style="fill: none; stroke: #000000; stroke-width: 0.8; stroke-linejoin: miter; stroke-linecap: square"/>
   </g>
   <g id="patch_6">
    <path d="M 57.6 41.472 
L 414.72 41.472 
" style="fill: none; stroke: #000000; stroke-width: 0.8; stroke-linejoin: miter; stroke-linecap: square"/>
   </g>
   <g id="text_21">
    <!-- 原函数与插值函数图像 -->
    <g transform="translate(176.16 35.472) scale(0.12 -0.12)">
     <defs>
      <path id="NotoSansSC-Thin-539f" d="M 1069 4890 
L 5984 4890 
L 5984 4698 
L 1069 4698 
L 1069 4890 
z
M 966 4890 
L 1158 4890 
L 1158 3123 
Q 1158 2746 1136 2304 
Q 1114 1862 1040 1401 
Q 966 941 828 496 
Q 691 51 461 -333 
Q 448 -314 419 -291 
Q 390 -269 361 -246 
Q 333 -224 307 -218 
Q 531 160 662 585 
Q 794 1011 861 1456 
Q 928 1901 947 2326 
Q 966 2752 966 3123 
L 966 4890 
z
M 2080 2675 
L 2080 1882 
L 5222 1882 
L 5222 2675 
L 2080 2675 
z
M 2080 3642 
L 2080 2861 
L 5222 2861 
L 5222 3642 
L 2080 3642 
z
M 1888 3827 
L 5408 3827 
L 5408 1696 
L 1888 1696 
L 1888 3827 
z
M 3539 1869 
L 3725 1869 
L 3725 -141 
Q 3725 -262 3686 -320 
Q 3648 -378 3546 -410 
Q 3437 -435 3203 -435 
Q 2970 -435 2566 -435 
Q 2560 -403 2534 -355 
Q 2509 -307 2483 -262 
Q 2842 -269 3085 -272 
Q 3328 -275 3405 -269 
Q 3488 -262 3513 -236 
Q 3539 -211 3539 -147 
L 3539 1869 
z
M 3552 4563 
L 3744 4506 
Q 3661 4307 3568 4086 
Q 3475 3866 3386 3699 
L 3226 3744 
Q 3315 3917 3408 4150 
Q 3501 4384 3552 4563 
z
M 4506 1133 
L 4653 1216 
Q 4870 1018 5104 784 
Q 5338 550 5546 326 
Q 5754 102 5888 -58 
L 5734 -173 
Q 5600 -6 5392 221 
Q 5184 448 4950 688 
Q 4717 928 4506 1133 
z
M 2458 1248 
L 2643 1184 
Q 2470 960 2265 720 
Q 2061 480 1856 259 
Q 1651 38 1466 -134 
Q 1446 -122 1414 -99 
Q 1382 -77 1350 -54 
Q 1318 -32 1293 -19 
Q 1594 243 1907 582 
Q 2221 922 2458 1248 
z
" transform="scale(0.015625)"/>
      <path id="NotoSansSC-Thin-51fd" d="M 5574 3942 
L 5766 3942 
L 5766 -435 
L 5574 -435 
L 5574 3942 
z
M 3162 2592 
L 3277 2720 
Q 3622 2470 3980 2169 
Q 4339 1869 4649 1584 
Q 4960 1299 5152 1088 
L 5024 934 
Q 4826 1158 4515 1452 
Q 4205 1747 3853 2048 
Q 3501 2349 3162 2592 
z
M 1350 3552 
L 1485 3654 
Q 1670 3501 1852 3318 
Q 2035 3136 2185 2957 
Q 2336 2778 2426 2637 
L 2278 2509 
Q 2189 2656 2035 2841 
Q 1882 3027 1706 3216 
Q 1530 3405 1350 3552 
z
M 1171 1152 
Q 1427 1318 1756 1539 
Q 2086 1760 2454 2016 
Q 2822 2272 3187 2528 
L 3251 2374 
Q 2739 2003 2214 1641 
Q 1690 1280 1286 1005 
L 1171 1152 
z
M 4890 3738 
L 5056 3654 
Q 4883 3418 4668 3158 
Q 4454 2899 4233 2656 
Q 4013 2413 3808 2221 
L 3661 2310 
Q 3859 2502 4086 2752 
Q 4314 3002 4528 3264 
Q 4742 3526 4890 3738 
z
M 1178 4998 
L 4934 4998 
L 4934 4813 
L 1178 4813 
L 1178 4998 
z
M 3117 3834 
L 3309 3834 
L 3309 883 
Q 3309 768 3270 710 
Q 3232 653 3136 621 
Q 3046 595 2848 592 
Q 2650 589 2330 589 
Q 2323 627 2300 681 
Q 2278 736 2246 781 
Q 2528 774 2736 771 
Q 2944 768 3008 774 
Q 3117 781 3117 883 
L 3117 3834 
z
M 4864 4998 
L 4909 4998 
L 4947 5011 
L 5088 4915 
Q 4851 4685 4531 4461 
Q 4211 4237 3875 4045 
Q 3539 3853 3245 3712 
Q 3219 3744 3184 3776 
Q 3149 3808 3117 3834 
Q 3411 3968 3737 4153 
Q 4064 4339 4361 4550 
Q 4659 4762 4864 4954 
L 4864 4998 
z
M 672 3936 
L 858 3936 
L 858 192 
L 5683 192 
L 5683 -6 
L 672 -6 
L 672 3936 
z
" transform="scale(0.015625)"/>
      <path id="NotoSansSC-Thin-6570" d="M 512 1990 
L 2970 1990 
L 2970 1798 
L 512 1798 
L 512 1990 
z
M 365 4064 
L 3386 4064 
L 3386 3878 
L 365 3878 
L 365 4064 
z
M 2957 5146 
L 3123 5050 
Q 3002 4826 2845 4586 
Q 2688 4346 2554 4173 
L 2419 4256 
Q 2509 4371 2608 4531 
Q 2707 4691 2800 4854 
Q 2893 5018 2957 5146 
z
M 1792 5318 
L 1984 5318 
L 1984 2611 
L 1792 2611 
L 1792 5318 
z
M 691 5043 
L 845 5101 
Q 992 4902 1117 4662 
Q 1242 4422 1286 4250 
L 1139 4179 
Q 1088 4352 960 4598 
Q 832 4845 691 5043 
z
M 1792 3987 
L 1946 3904 
Q 1798 3622 1561 3344 
Q 1325 3066 1046 2832 
Q 768 2598 486 2445 
Q 467 2490 428 2538 
Q 390 2586 358 2618 
Q 634 2746 909 2960 
Q 1184 3174 1417 3443 
Q 1651 3712 1792 3987 
z
M 1946 3866 
Q 2029 3814 2205 3696 
Q 2381 3578 2585 3443 
Q 2790 3309 2960 3190 
Q 3130 3072 3200 3021 
L 3072 2854 
Q 2995 2925 2832 3049 
Q 2669 3174 2473 3315 
Q 2278 3456 2105 3574 
Q 1933 3693 1830 3750 
L 1946 3866 
z
M 3962 4013 
L 5997 4013 
L 5997 3827 
L 3962 3827 
L 3962 4013 
z
M 4128 5222 
L 4314 5190 
Q 4218 4614 4083 4086 
Q 3949 3558 3766 3100 
Q 3584 2643 3354 2285 
Q 3341 2298 3309 2320 
Q 3277 2342 3241 2361 
Q 3206 2381 3181 2394 
Q 3424 2733 3603 3184 
Q 3782 3635 3913 4153 
Q 4045 4672 4128 5222 
z
M 5357 3936 
L 5549 3910 
Q 5382 2829 5084 2006 
Q 4787 1184 4291 579 
Q 3795 -26 3040 -454 
Q 3027 -435 3004 -406 
Q 2982 -378 2956 -349 
Q 2931 -320 2906 -301 
Q 3654 90 4140 678 
Q 4627 1267 4915 2076 
Q 5203 2886 5357 3936 
z
M 3994 3789 
Q 4147 2874 4425 2070 
Q 4704 1267 5133 668 
Q 5562 70 6150 -243 
Q 6112 -269 6073 -313 
Q 6035 -358 6010 -397 
Q 5414 -51 4985 563 
Q 4557 1178 4275 1997 
Q 3994 2816 3834 3757 
L 3994 3789 
z
M 896 1018 
L 1050 1152 
Q 1370 1037 1722 873 
Q 2074 710 2387 544 
Q 2701 378 2906 230 
L 2752 90 
Q 2554 237 2240 406 
Q 1926 576 1574 739 
Q 1222 902 896 1018 
z
M 2880 1990 
L 2918 1990 
L 2963 2003 
L 3066 1946 
Q 2874 1286 2474 825 
Q 2074 365 1552 80 
Q 1030 -205 467 -358 
Q 454 -320 422 -272 
Q 390 -224 358 -198 
Q 902 -64 1411 205 
Q 1920 474 2310 906 
Q 2701 1338 2880 1946 
L 2880 1990 
z
M 896 1018 
Q 1030 1210 1168 1453 
Q 1306 1696 1427 1952 
Q 1549 2208 1632 2438 
L 1811 2406 
Q 1722 2170 1597 1910 
Q 1472 1651 1341 1414 
Q 1210 1178 1094 1005 
L 896 1018 
z
" transform="scale(0.015625)"/>
      <path id="NotoSansSC-Thin-4e0e" d="M 1242 2701 
L 5427 2701 
L 5427 2509 
L 1242 2509 
L 1242 2701 
z
M 1600 4320 
L 5530 4320 
L 5530 4134 
L 1600 4134 
L 1600 4320 
z
M 422 1376 
L 4403 1376 
L 4403 1184 
L 422 1184 
L 422 1376 
z
M 5357 2701 
L 5555 2701 
Q 5555 2701 5552 2678 
Q 5549 2656 5549 2624 
Q 5549 2592 5542 2573 
Q 5440 1651 5341 1075 
Q 5242 499 5130 192 
Q 5018 -115 4877 -243 
Q 4787 -326 4688 -352 
Q 4589 -378 4429 -384 
Q 4282 -384 3978 -371 
Q 3674 -358 3334 -333 
Q 3328 -288 3315 -237 
Q 3302 -186 3270 -147 
Q 3642 -179 3958 -188 
Q 4275 -198 4397 -198 
Q 4525 -198 4595 -185 
Q 4666 -173 4717 -128 
Q 4851 -13 4960 291 
Q 5069 595 5165 1168 
Q 5261 1741 5357 2656 
L 5357 2701 
z
M 1747 5139 
L 1926 5114 
Q 1862 4806 1785 4454 
Q 1709 4102 1622 3744 
Q 1536 3386 1456 3069 
Q 1376 2752 1306 2509 
L 1107 2509 
Q 1184 2758 1267 3084 
Q 1350 3411 1436 3772 
Q 1523 4134 1603 4486 
Q 1683 4838 1747 5139 
z
" transform="scale(0.015625)"/>
      <path id="NotoSansSC-Thin-63d2" d="M 5472 5242 
L 5594 5088 
Q 5344 4998 4998 4928 
Q 4653 4858 4256 4806 
Q 3859 4755 3452 4723 
Q 3046 4691 2682 4672 
Q 2675 4704 2656 4755 
Q 2637 4806 2618 4845 
Q 2982 4864 3385 4899 
Q 3789 4934 4179 4982 
Q 4570 5030 4906 5094 
Q 5242 5158 5472 5242 
z
M 3526 2925 
L 3674 2771 
Q 3469 2669 3184 2576 
Q 2899 2483 2637 2426 
Q 2630 2458 2604 2502 
Q 2579 2547 2560 2586 
Q 2810 2656 3085 2742 
Q 3360 2829 3526 2925 
z
M 2362 3789 
L 6029 3789 
L 6029 3603 
L 2362 3603 
L 2362 3789 
z
M 4109 4915 
L 4301 4915 
L 4301 6 
L 4109 6 
L 4109 4915 
z
M 2560 2586 
L 2746 2522 
L 2746 -448 
L 2560 -448 
L 2560 2586 
z
M 4608 2707 
L 5792 2707 
L 5792 -454 
L 5600 -454 
L 5600 2515 
L 4608 2515 
L 4608 2707 
z
M 2624 1466 
L 3757 1466 
L 3757 1274 
L 2624 1274 
L 2624 1466 
z
M 4627 1466 
L 5728 1466 
L 5728 1280 
L 4627 1280 
L 4627 1466 
z
M 2662 109 
L 5677 109 
L 5677 -83 
L 2662 -83 
L 2662 109 
z
M 314 1779 
Q 653 1882 1126 2038 
Q 1600 2195 2106 2368 
L 2131 2176 
Q 1664 2022 1203 1868 
Q 742 1715 384 1587 
L 314 1779 
z
M 410 3949 
L 2054 3949 
L 2054 3757 
L 410 3757 
L 410 3949 
z
M 1165 5312 
L 1357 5312 
L 1357 -166 
Q 1357 -282 1318 -336 
Q 1280 -390 1210 -416 
Q 1139 -442 1004 -445 
Q 870 -448 646 -448 
Q 634 -416 611 -361 
Q 589 -307 563 -269 
Q 755 -275 892 -272 
Q 1030 -269 1075 -269 
Q 1165 -269 1165 -173 
L 1165 5312 
z
" transform="scale(0.015625)"/>
      <path id="NotoSansSC-Thin-503c" d="M 2074 4589 
L 5830 4589 
L 5830 4397 
L 2074 4397 
L 2074 4589 
z
M 1805 -13 
L 6074 -13 
L 6074 -198 
L 1805 -198 
L 1805 -13 
z
M 2477 3642 
L 5414 3642 
L 5414 -128 
L 5229 -128 
L 5229 3450 
L 2669 3450 
L 2669 -128 
L 2477 -128 
L 2477 3642 
z
M 2573 2720 
L 5312 2720 
L 5312 2534 
L 2573 2534 
L 2573 2720 
z
M 2566 1798 
L 5338 1798 
L 5338 1613 
L 2566 1613 
L 2566 1798 
z
M 2586 870 
L 5325 870 
L 5325 685 
L 2586 685 
L 2586 870 
z
M 3917 5325 
L 4128 5286 
Q 4077 5018 4009 4701 
Q 3942 4384 3875 4086 
Q 3808 3789 3738 3571 
L 3565 3610 
Q 3629 3827 3696 4134 
Q 3763 4442 3824 4758 
Q 3885 5075 3917 5325 
z
M 1862 5318 
L 2048 5267 
Q 1850 4730 1594 4221 
Q 1338 3712 1040 3267 
Q 742 2822 416 2464 
Q 403 2483 377 2512 
Q 352 2541 326 2569 
Q 301 2598 275 2618 
Q 595 2950 886 3382 
Q 1178 3814 1430 4310 
Q 1683 4806 1862 5318 
z
M 1152 3744 
L 1325 3923 
L 1338 3917 
L 1338 -454 
L 1152 -454 
L 1152 3744 
z
" transform="scale(0.015625)"/>
      <path id="NotoSansSC-Thin-56fe" d="M 614 4998 
L 5786 4998 
L 5786 -448 
L 5594 -448 
L 5594 4813 
L 806 4813 
L 806 -448 
L 614 -448 
L 614 4998 
z
M 704 45 
L 5734 45 
L 5734 -141 
L 704 -141 
L 704 45 
z
M 2509 1856 
L 2605 2010 
Q 2848 1958 3120 1878 
Q 3392 1798 3638 1705 
Q 3885 1613 4045 1530 
L 3955 1363 
Q 3789 1446 3542 1542 
Q 3296 1638 3027 1721 
Q 2758 1805 2509 1856 
z
M 2701 4531 
L 2880 4474 
Q 2701 4173 2461 3894 
Q 2221 3616 1952 3379 
Q 1683 3142 1408 2957 
Q 1395 2976 1363 2998 
Q 1331 3021 1299 3043 
Q 1267 3066 1242 3078 
Q 1664 3341 2057 3721 
Q 2451 4102 2701 4531 
z
M 4429 4026 
L 4474 4026 
L 4512 4038 
L 4627 3962 
Q 4390 3558 4003 3232 
Q 3616 2906 3145 2653 
Q 2675 2400 2179 2221 
Q 1683 2042 1216 1933 
Q 1203 1958 1187 1990 
Q 1171 2022 1152 2051 
Q 1133 2080 1114 2093 
Q 1574 2189 2060 2358 
Q 2547 2528 3004 2768 
Q 3462 3008 3833 3312 
Q 4205 3616 4429 3981 
L 4429 4026 
z
M 2259 3770 
Q 2547 3379 3024 3056 
Q 3501 2733 4083 2502 
Q 4666 2272 5274 2157 
Q 5248 2131 5213 2086 
Q 5178 2042 5158 1997 
Q 4557 2125 3968 2368 
Q 3379 2611 2892 2947 
Q 2406 3283 2106 3693 
L 2259 3770 
z
M 2381 4026 
L 4499 4026 
L 4499 3840 
L 2266 3840 
L 2381 4026 
z
M 1818 1050 
L 1920 1210 
Q 2240 1171 2598 1107 
Q 2957 1043 3309 966 
Q 3661 890 3968 810 
Q 4275 730 4493 653 
L 4397 480 
Q 4102 582 3667 691 
Q 3232 800 2745 899 
Q 2259 998 1818 1050 
z
" transform="scale(0.015625)"/>
      <path id="NotoSansSC-Thin-50cf" d="M 2970 4858 
L 4525 4858 
L 4525 4666 
L 2970 4666 
L 2970 4858 
z
M 2483 3776 
L 2483 2886 
L 5485 2886 
L 5485 3776 
L 2483 3776 
z
M 2298 3968 
L 5670 3968 
L 5670 2701 
L 2298 2701 
L 2298 3968 
z
M 3328 2419 
L 3456 2522 
Q 3776 2291 3987 1977 
Q 4198 1664 4307 1321 
Q 4416 979 4429 659 
Q 4442 339 4368 89 
Q 4294 -160 4147 -282 
Q 4038 -384 3929 -409 
Q 3821 -435 3674 -435 
Q 3488 -435 3258 -416 
Q 3251 -384 3235 -329 
Q 3219 -275 3200 -237 
Q 3328 -250 3443 -256 
Q 3558 -262 3642 -262 
Q 3750 -262 3836 -249 
Q 3923 -237 4006 -160 
Q 4134 -58 4195 166 
Q 4256 390 4240 681 
Q 4224 973 4121 1289 
Q 4019 1606 3824 1900 
Q 3629 2195 3328 2419 
z
M 3840 1958 
L 3987 1875 
Q 3750 1638 3392 1398 
Q 3034 1158 2646 960 
Q 2259 762 1926 640 
Q 1901 678 1862 723 
Q 1824 768 1792 794 
Q 2131 902 2518 1084 
Q 2906 1267 3258 1497 
Q 3610 1728 3840 1958 
z
M 4160 1325 
L 4301 1248 
Q 4038 934 3628 643 
Q 3219 352 2764 118 
Q 2310 -115 1888 -256 
Q 1862 -218 1830 -173 
Q 1798 -128 1766 -102 
Q 2189 26 2643 246 
Q 3098 467 3501 748 
Q 3904 1030 4160 1325 
z
M 5517 2298 
L 5658 2163 
Q 5453 2016 5197 1865 
Q 4941 1715 4678 1580 
Q 4416 1446 4192 1344 
L 4077 1459 
Q 4301 1562 4566 1709 
Q 4832 1856 5085 2013 
Q 5338 2170 5517 2298 
z
M 3213 5312 
L 3411 5280 
Q 3174 4826 2771 4304 
Q 2368 3782 1798 3347 
Q 1786 3366 1760 3388 
Q 1734 3411 1708 3430 
Q 1683 3450 1658 3462 
Q 2029 3731 2329 4054 
Q 2630 4378 2854 4704 
Q 3078 5030 3213 5312 
z
M 4467 4858 
L 4506 4858 
L 4544 4870 
L 4672 4787 
Q 4544 4525 4355 4262 
Q 4166 4000 3994 3814 
Q 3974 3846 3939 3875 
Q 3904 3904 3872 3923 
Q 3981 4038 4093 4192 
Q 4205 4346 4304 4509 
Q 4403 4672 4467 4813 
L 4467 4858 
z
M 4826 1741 
Q 4941 1382 5133 1052 
Q 5325 723 5581 470 
Q 5837 218 6131 77 
Q 6093 45 6054 -3 
Q 6016 -51 5984 -90 
Q 5536 154 5187 637 
Q 4838 1120 4653 1683 
L 4826 1741 
z
M 3923 3891 
L 4109 3891 
L 4109 3923 
Q 4109 3757 4077 3539 
Q 4045 3322 3936 3075 
Q 3827 2829 3596 2576 
Q 3366 2323 2979 2080 
Q 2592 1837 2003 1632 
Q 1984 1664 1949 1705 
Q 1914 1747 1869 1779 
Q 2445 1971 2822 2201 
Q 3200 2432 3424 2675 
Q 3648 2918 3753 3152 
Q 3859 3386 3891 3584 
Q 3923 3782 3923 3923 
L 3923 3891 
z
M 1862 5293 
L 2048 5242 
Q 1850 4704 1594 4195 
Q 1338 3686 1040 3241 
Q 742 2797 416 2438 
Q 403 2458 377 2486 
Q 352 2515 326 2544 
Q 301 2573 275 2592 
Q 595 2925 886 3360 
Q 1178 3795 1430 4288 
Q 1683 4781 1862 5293 
z
M 1152 3674 
L 1325 3853 
L 1338 3846 
L 1338 -422 
L 1152 -422 
L 1152 3674 
z
" transform="scale(0.015625)"/>
     </defs>
     <use xlink:href="#NotoSansSC-Thin-539f"/>
     <use xlink:href="#NotoSansSC-Thin-51fd" transform="translate(99.999985 0)"/>
     <use xlink:href="#NotoSansSC-Thin-6570" transform="translate(199.999969 0)"/>
     <use xlink:href="#NotoSansSC-Thin-4e0e" transform="translate(299.999954 0)"/>
     <use xlink:href="#NotoSansSC-Thin-63d2" transform="translate(399.999939 0)"/>
     <use xlink:href="#NotoSansSC-Thin-503c" transform="translate(499.999924 0)"/>
     <use xlink:href="#NotoSansSC-Thin-51fd" transform="translate(599.999908 0)"/>
     <use xlink:href="#NotoSansSC-Thin-6570" transform="translate(699.999893 0)"/>
     <use xlink:href="#NotoSansSC-Thin-56fe" transform="translate(799.999878 0)"/>
     <use xlink:href="#NotoSansSC-Thin-50cf" transform="translate(899.999863 0)"/>
    </g>
   </g>
   <g id="legend_1">
    <g id="patch_7">
     <path d="M 206.51 92.35325 
L 265.81 92.35325 
Q 267.81 92.35325 267.81 90.35325 
L 267.81 48.472 
Q 267.81 46.472 265.81 46.472 
L 206.51 46.472 
Q 204.51 46.472 204.51 48.472 
L 204.51 90.35325 
Q 204.51 92.35325 206.51 92.35325 
z
" style="fill: #ffffff; opacity: 0.8; stroke: #cccccc; stroke-linejoin: miter"/>
    </g>
    <g id="line2d_22">
     <path d="M 208.51 54.472 
L 218.51 54.472 
L 228.51 54.472 
" style="fill: none; stroke: #1f77b4; stroke-width: 1.5; stroke-linecap: square"/>
    </g>
    <g id="text_22">
     <!-- $f(x)$ -->
     <g transform="translate(236.51 57.972) scale(0.1 -0.1)">
      <defs>
       <path id="Cmmi10-66" d="M 622 -1056 
Q 741 -1147 909 -1147 
Q 1138 -1147 1281 -641 
Q 1341 -397 1606 966 
L 1900 2534 
L 1350 2534 
Q 1288 2534 1288 2619 
Q 1313 2759 1369 2759 
L 1941 2759 
L 2016 3175 
Q 2053 3369 2084 3508 
Q 2116 3647 2152 3765 
Q 2188 3884 2259 4031 
Q 2369 4241 2555 4377 
Q 2741 4513 2956 4513 
Q 3097 4513 3230 4461 
Q 3363 4409 3447 4306 
Q 3531 4203 3531 4063 
Q 3531 3900 3423 3779 
Q 3316 3659 3163 3659 
Q 3059 3659 2986 3723 
Q 2913 3788 2913 3891 
Q 2913 4031 3008 4136 
Q 3103 4241 3244 4256 
Q 3125 4347 2950 4347 
Q 2853 4347 2767 4256 
Q 2681 4166 2656 4063 
Q 2616 3900 2478 3181 
L 2400 2759 
L 3059 2759 
Q 3122 2759 3122 2675 
Q 3119 2659 3109 2620 
Q 3100 2581 3083 2557 
Q 3066 2534 3041 2534 
L 2356 2534 
L 2059 972 
Q 2003 631 1929 279 
Q 1856 -72 1723 -442 
Q 1591 -813 1384 -1063 
Q 1178 -1313 897 -1313 
Q 681 -1313 511 -1189 
Q 341 -1066 341 -863 
Q 341 -700 445 -579 
Q 550 -459 709 -459 
Q 816 -459 887 -523 
Q 959 -588 959 -691 
Q 959 -828 857 -942 
Q 756 -1056 622 -1056 
z
" transform="scale(0.015625)"/>
       <path id="Cmr10-28" d="M 1984 -1588 
Q 1628 -1306 1370 -942 
Q 1113 -578 948 -165 
Q 784 247 703 697 
Q 622 1147 622 1600 
Q 622 2059 703 2509 
Q 784 2959 951 3375 
Q 1119 3791 1378 4153 
Q 1638 4516 1984 4788 
Q 1984 4800 2016 4800 
L 2075 4800 
Q 2094 4800 2109 4783 
Q 2125 4766 2125 4744 
Q 2125 4716 2113 4703 
Q 1800 4397 1592 4047 
Q 1384 3697 1257 3301 
Q 1131 2906 1075 2482 
Q 1019 2059 1019 1600 
Q 1019 -434 2106 -1491 
Q 2125 -1509 2125 -1544 
Q 2125 -1559 2108 -1579 
Q 2091 -1600 2075 -1600 
L 2016 -1600 
Q 1984 -1600 1984 -1588 
z
" transform="scale(0.015625)"/>
       <path id="Cmr10-29" d="M 416 -1600 
Q 359 -1600 359 -1544 
Q 359 -1516 372 -1503 
Q 1466 -434 1466 1600 
Q 1466 3634 384 4691 
Q 359 4706 359 4744 
Q 359 4766 376 4783 
Q 394 4800 416 4800 
L 475 4800 
Q 494 4800 506 4788 
Q 966 4425 1272 3906 
Q 1578 3388 1720 2800 
Q 1863 2213 1863 1600 
Q 1863 1147 1786 708 
Q 1709 269 1542 -157 
Q 1375 -584 1119 -945 
Q 863 -1306 506 -1588 
Q 494 -1600 475 -1600 
L 416 -1600 
z
" transform="scale(0.015625)"/>
      </defs>
      <use xlink:href="#Cmmi10-66"/>
      <use xlink:href="#Cmr10-28" transform="translate(48.876953 0)"/>
      <use xlink:href="#Cmmi10-78" transform="translate(87.695312 0)"/>
      <use xlink:href="#Cmr10-29" transform="translate(144.775391 0)"/>
     </g>
    </g>
    <g id="line2d_23">
     <path d="M 208.51 68.972 
L 218.51 68.972 
L 228.51 68.972 
" style="fill: none; stroke: #ff7f0e; stroke-width: 0.5; stroke-linecap: square"/>
    </g>
    <g id="text_23">
     <!-- $n=10$ -->
     <g transform="translate(236.51 72.472) scale(0.1 -0.1)">
      <defs>
       <path id="Cmmi10-6e" d="M 494 109 
Q 494 147 500 166 
L 978 2075 
Q 1025 2253 1025 2388 
Q 1025 2663 838 2663 
Q 638 2663 541 2423 
Q 444 2184 353 1819 
Q 353 1800 334 1789 
Q 316 1778 300 1778 
L 225 1778 
Q 203 1778 187 1801 
Q 172 1825 172 1844 
Q 241 2122 305 2315 
Q 369 2509 505 2668 
Q 641 2828 844 2828 
Q 1084 2828 1268 2676 
Q 1453 2525 1453 2291 
Q 1644 2541 1900 2684 
Q 2156 2828 2444 2828 
Q 2672 2828 2837 2750 
Q 3003 2672 3095 2514 
Q 3188 2356 3188 2138 
Q 3188 1875 3070 1503 
Q 2953 1131 2778 672 
Q 2688 463 2688 288 
Q 2688 97 2834 97 
Q 3084 97 3251 365 
Q 3419 634 3488 941 
Q 3500 978 3541 978 
L 3616 978 
Q 3641 978 3658 962 
Q 3675 947 3675 922 
Q 3675 916 3669 903 
Q 3581 541 3364 234 
Q 3147 -72 2822 -72 
Q 2597 -72 2437 83 
Q 2278 238 2278 459 
Q 2278 578 2328 709 
Q 2409 919 2514 1209 
Q 2619 1500 2686 1765 
Q 2753 2031 2753 2234 
Q 2753 2413 2679 2538 
Q 2606 2663 2431 2663 
Q 2197 2663 2000 2559 
Q 1803 2456 1656 2286 
Q 1509 2116 1388 1881 
L 953 141 
Q 931 53 854 -9 
Q 778 -72 684 -72 
Q 606 -72 550 -22 
Q 494 28 494 109 
z
" transform="scale(0.015625)"/>
       <path id="Cmr10-3d" d="M 481 850 
Q 428 850 393 890 
Q 359 931 359 978 
Q 359 1031 393 1068 
Q 428 1106 481 1106 
L 4500 1106 
Q 4547 1106 4581 1068 
Q 4616 1031 4616 978 
Q 4616 931 4581 890 
Q 4547 850 4500 850 
L 481 850 
z
M 481 2094 
Q 428 2094 393 2131 
Q 359 2169 359 2222 
Q 359 2269 393 2309 
Q 428 2350 481 2350 
L 4500 2350 
Q 4547 2350 4581 2309 
Q 4616 2269 4616 2222 
Q 4616 2169 4581 2131 
Q 4547 2094 4500 2094 
L 481 2094 
z
" transform="scale(0.015625)"/>
       <path id="Cmr10-31" d="M 594 0 
L 594 225 
Q 1394 225 1394 428 
L 1394 3788 
Q 1063 3628 556 3628 
L 556 3853 
Q 1341 3853 1741 4263 
L 1831 4263 
Q 1853 4263 1873 4245 
Q 1894 4228 1894 4206 
L 1894 428 
Q 1894 225 2694 225 
L 2694 0 
L 594 0 
z
" transform="scale(0.015625)"/>
       <path id="Cmr10-30" d="M 1600 -141 
Q 816 -141 533 504 
Q 250 1150 250 2041 
Q 250 2597 351 3087 
Q 453 3578 754 3920 
Q 1056 4263 1600 4263 
Q 2022 4263 2290 4056 
Q 2559 3850 2700 3523 
Q 2841 3197 2892 2823 
Q 2944 2450 2944 2041 
Q 2944 1491 2842 1011 
Q 2741 531 2444 195 
Q 2147 -141 1600 -141 
z
M 1600 25 
Q 1956 25 2131 390 
Q 2306 756 2347 1200 
Q 2388 1644 2388 2144 
Q 2388 2625 2347 3031 
Q 2306 3438 2132 3767 
Q 1959 4097 1600 4097 
Q 1238 4097 1063 3765 
Q 888 3434 847 3029 
Q 806 2625 806 2144 
Q 806 1788 823 1472 
Q 841 1156 916 820 
Q 991 484 1158 254 
Q 1325 25 1600 25 
z
" transform="scale(0.015625)"/>
      </defs>
      <use xlink:href="#Cmmi10-6e" transform="translate(0 0.390625)"/>
      <use xlink:href="#Cmr10-3d" transform="translate(77.568359 0.390625)"/>
      <use xlink:href="#Cmr10-31" transform="translate(172.8125 0.390625)"/>
      <use xlink:href="#Cmr10-30" transform="translate(222.8125 0.390625)"/>
     </g>
    </g>
    <g id="line2d_24">
     <path d="M 208.51 82.912625 
L 218.51 82.912625 
L 228.51 82.912625 
" style="fill: none; stroke: #2ca02c; stroke-width: 0.5; stroke-linecap: square"/>
    </g>
    <g id="text_24">
     <!-- $n=20$ -->
     <g transform="translate(236.51 86.412625) scale(0.1 -0.1)">
      <defs>
       <path id="Cmr10-32" d="M 319 0 
L 319 172 
Q 319 188 331 206 
L 1325 1306 
Q 1550 1550 1690 1715 
Q 1831 1881 1968 2097 
Q 2106 2313 2186 2536 
Q 2266 2759 2266 3009 
Q 2266 3272 2169 3511 
Q 2072 3750 1880 3894 
Q 1688 4038 1416 4038 
Q 1138 4038 916 3870 
Q 694 3703 603 3438 
Q 628 3444 672 3444 
Q 816 3444 917 3347 
Q 1019 3250 1019 3097 
Q 1019 2950 917 2848 
Q 816 2747 672 2747 
Q 522 2747 420 2851 
Q 319 2956 319 3097 
Q 319 3338 409 3548 
Q 500 3759 670 3923 
Q 841 4088 1055 4175 
Q 1269 4263 1509 4263 
Q 1875 4263 2190 4108 
Q 2506 3953 2690 3670 
Q 2875 3388 2875 3009 
Q 2875 2731 2753 2481 
Q 2631 2231 2440 2026 
Q 2250 1822 1953 1562 
Q 1656 1303 1563 1216 
L 838 519 
L 1453 519 
Q 1906 519 2211 526 
Q 2516 534 2534 550 
Q 2609 631 2688 1141 
L 2875 1141 
L 2694 0 
L 319 0 
z
" transform="scale(0.015625)"/>
      </defs>
      <use xlink:href="#Cmmi10-6e" transform="translate(0 0.390625)"/>
      <use xlink:href="#Cmr10-3d" transform="translate(77.568359 0.390625)"/>
      <use xlink:href="#Cmr10-32" transform="translate(172.8125 0.390625)"/>
      <use xlink:href="#Cmr10-30" transform="translate(222.8125 0.390625)"/>
     </g>
    </g>
   </g>
  </g>
 </g>
 <defs>
  <clipPath id="p708ad2b833">
   <rect x="57.6" y="41.472" width="357.12" height="266.112"/>
  </clipPath>
 </defs>
</svg>
